<svg height="504pt" viewBox="0 -56 504 504" width="504pt" xmlns="http://www.w3.org/2000/svg"><path d="m496 17.28125c-4.480469 0-16 0-16 0h-456s-11.511719 0-16 0-8 3.511719-8 8v8 328c0 4.398438 3.601562 8 8 8h488c4.398438 0 8-3.601562 8-8v-328s0-3.511719 0-8-3.519531-8-8-8zm0 0" fill="#ac92ec"/><path d="m252 17.28125c-20-24-220-16-220-16v344s200-8 220 16c2.230469-2.722656 6.800781-4.960938 13.039062-6.960938 49.441407-15.359374 214.96875-9.039062 214.96875-9.039062v-344s-208.007812-8-228.007812 16zm0 0" fill="#e6e9ed"/><path d="m23.992188 1.28125v344s208.007812-8 228.007812 16v-344c-20-24-228.007812-16-228.007812-16zm0 0" fill="#f5f7fa"/><path d="m152 152.6875c0 6.628906-5.371094 12-12 12s-12-5.371094-12-12c0-6.625 5.371094-12 12-12s12 5.375 12 12zm0 0" fill="#ac92ec"/><path d="m140 184.6875h-3.761719c-2.207031 0-4-1.792969-4-4s1.792969-4 4-4h3.761719c42.433594 0 72-12.648438 72-24s-29.566406-24-72-24h-4c-2.207031 0-4-1.792969-4-4s1.792969-4 4-4h4c38.785156 0 80 11.214844 80 32s-41.214844 32-80 32zm0 0" fill="#ac92ec"/><path d="m87.921875 177.097656c-.441406 0-.882813-.074218-1.3125-.21875-17.160156-5.984375-26.609375-14.574218-26.609375-24.191406 0-9.734375 9.488281-18.320312 26.710938-24.175781 2.097656-.6875 4.359374.410156 5.082031 2.503906.710937 2.097656-.410157 4.367187-2.503907 5.082031-13.328124 4.519532-21.289062 10.71875-21.289062 16.589844 0 5.785156 7.9375 12 21.230469 16.625 2.089843.726562 3.195312 3.007812 2.472656 5.09375-.574219 1.65625-2.128906 2.691406-3.78125 2.691406zm0 0" fill="#ac92ec"/><path d="m165.359375 168.6875c-.671875 0-1.351563-.167969-1.976563-.519531-1.917968-1.097657-2.589843-3.527344-1.503906-5.457031 4.441406-7.800782 8.226563-15.695313 11.273438-23.488282.808594-2.054687 3.113281-3.0625 5.183594-2.261718 2.054687.808593 3.070312 3.128906 2.265624 5.183593-3.1875 8.144531-7.152343 16.390625-11.777343 24.511719-.71875 1.304688-2.070313 2.03125-3.464844 2.03125zm0 0" fill="#ac92ec"/><path d="m107.921875 224.023438c-3.3125 0-5.921875-.871094-7.914063-2.023438-4.695312-2.726562-10.046874-9.359375-8.960937-25.574219 1.21875-16.730469 8.960937-38.496093 21.25-59.738281 6.175781-10.71875 13.335937-20.886719 20.671875-29.40625 18.464844-21.265625 36.0625-30.203125 47.015625-23.90625 8.144531 4.753906 10.878906 16.273438 7.960937 33.34375-.378906 2.183594-2.480468 3.640625-4.617187 3.273438-2.175781-.375-3.640625-2.449219-3.273437-4.617188 2.25-13.117188.769531-22.253906-4.070313-25.078125-5.878906-3.386719-19.601563 2.183594-36.960937 22.214844-7.015626 8.136719-13.855469 17.871093-19.808594 28.167969-11.527344 19.9375-19.078125 40.984374-20.183594 56.289062-.632812 9.429688 1.136719 15.863281 4.976562 18.09375 4.417969 2.539062 12.273438-.085938 21.550782-7.222656 1.738281-1.335938 4.25-1.015625 5.609375.734375 1.34375 1.753906 1.015625 4.257812-.734375 5.609375-9.679688 7.457031-17.058594 9.839844-22.511719 9.839844zm0 0" fill="#ac92ec"/><path d="m103.121094 144.6875c-1.601563 0-3.113282-.96875-3.730469-2.542969-11.4375-29.359375-11.199219-51.871093.59375-58.753906 5.335937-3.070313 14.910156-4.167969 30.472656 7.90625 1.742188 1.351563 2.0625 3.863281.703125 5.605469-1.367187 1.753906-3.878906 2.058594-5.609375.707031-9.261719-7.195313-17.117187-9.875-21.550781-7.296875-6.34375 3.703125-8.175781 20.597656 2.847656 48.917969.808594 2.066406-.214844 4.378906-2.273437 5.175781-.476563.195312-.972657.28125-1.453125.28125zm0 0" fill="#ac92ec"/><path d="m172 224.054688c-18.105469.007812-42.984375-26.390626-59.703125-55.367188-.402344-.632812-.855469-1.472656-1.234375-2.207031-.984375-1.976563-.183594-4.375 1.792969-5.367188 1.984375-1 4.375-.183593 5.367187 1.789063.265625.539062.601563 1.144531.9375 1.683594 21.253906 36.839843 47 56.085937 56.855469 50.484374 3.824219-2.214843 5.585937-8.65625 4.953125-18.109374-.152344-2.199219 1.519531-4.113282 3.726562-4.257813 2.089844-.101563 4.113282 1.511719 4.257813 3.730469 1.085937 16.214844-4.265625 22.847656-8.945313 25.566406-2.464843 1.398438-5.152343 2.054688-8.007812 2.054688zm0 0" fill="#ac92ec"/><g fill="#ccd1d9"><path d="m216 268.6875h-152c-2.207031 0-4-1.792969-4-4s1.792969-4 4-4h152c2.207031 0 4 1.792969 4 4s-1.792969 4-4 4zm0 0"/><path d="m184 284.6875h-88c-2.207031 0-4-1.792969-4-4s1.792969-4 4-4h88c2.207031 0 4 1.792969 4 4s-1.792969 4-4 4zm0 0"/><path d="m440 68.6875h-136.015625c-2.207031 0-4-1.792969-4-4s1.792969-4 4-4h136.015625c2.207031 0 4 1.792969 4 4s-1.792969 4-4 4zm0 0"/><path d="m440 92.6875h-136.015625c-2.207031 0-4-1.792969-4-4s1.792969-4 4-4h136.015625c2.207031 0 4 1.792969 4 4s-1.792969 4-4 4zm0 0"/><path d="m440 116.6875h-136.015625c-2.207031 0-4-1.792969-4-4s1.792969-4 4-4h136.015625c2.207031 0 4 1.792969 4 4s-1.792969 4-4 4zm0 0"/><path d="m440 140.6875h-136.015625c-2.207031 0-4-1.792969-4-4s1.792969-4 4-4h136.015625c2.207031 0 4 1.792969 4 4s-1.792969 4-4 4zm0 0"/><path d="m440 164.6875h-136.015625c-2.207031 0-4-1.792969-4-4s1.792969-4 4-4h136.015625c2.207031 0 4 1.792969 4 4s-1.792969 4-4 4zm0 0"/><path d="m440 188.6875h-136.015625c-2.207031 0-4-1.792969-4-4s1.792969-4 4-4h136.015625c2.207031 0 4 1.792969 4 4s-1.792969 4-4 4zm0 0"/><path d="m440 212.6875h-136.015625c-2.207031 0-4-1.792969-4-4s1.792969-4 4-4h136.015625c2.207031 0 4 1.792969 4 4s-1.792969 4-4 4zm0 0"/><path d="m440 236.6875h-136.015625c-2.207031 0-4-1.792969-4-4s1.792969-4 4-4h136.015625c2.207031 0 4 1.792969 4 4s-1.792969 4-4 4zm0 0"/><path d="m440 260.6875h-136.015625c-2.207031 0-4-1.792969-4-4s1.792969-4 4-4h136.015625c2.207031 0 4 1.792969 4 4s-1.792969 4-4 4zm0 0"/><path d="m440 284.6875h-136.015625c-2.207031 0-4-1.792969-4-4s1.792969-4 4-4h136.015625c2.207031 0 4 1.792969 4 4s-1.792969 4-4 4zm0 0"/></g><path d="m304 392.609375-8-7.921875-8 7.921875v-391.914063h16zm0 0" fill="#ed5565"/></svg>